<svg width="100%" height="100%" viewBox="0 0 512 512" version="1.1" xmlns="http://www.w3.org/2000/svg" xmlns:xlink="http://www.w3.org/1999/xlink" xml:space="preserve" style="fill-rule:evenodd;clip-rule:evenodd;stroke-linecap:round;stroke-linejoin:round;stroke-miterlimit:1.5;"><g transform="matrix(1.164025,0,0,1.164025,-57.510829,-54.018753)"><circle cx="269.333" cy="266.333" r="210.333" style="fill:url(#_Radial1);stroke:black;stroke-width:3.44px;"></circle></g><g transform="matrix(1.037243,0,0,1.037243,-23.363995,-20.252268)"><circle cx="269.333" cy="266.333" r="210.333" style="fill:rgb(60,109,115);"></circle><clipPath id="_clip2"><circle cx="269.333" cy="266.333" r="210.333"></circle></clipPath><g clip-path="url(#_clip2)"><g transform="matrix(0.397578,0,0,0.397578,269.333333,266.333333)"><g transform="matrix(1,0,0,1,-400,-400)"><g transform="matrix(12.5,0,0,12.5,0,0)"><path d="M20.6,14.8C18.2,10.3 2.4,11.7 2.4,11.7C2.4,11.7 0.5,27.7 5.1,30.2C8.6,32.1 22.5,18.4 20.6,14.8" style="fill:rgb(137,102,76);fill-rule:nonzero;"></path></g><g transform="matrix(12.5,0,0,12.5,0,0)"><path d="M17.6,17.2C16.1,14.4 6.3,15.3 6.3,15.3C6.3,15.3 5.2,25.3 8,26.8C10.2,28 18.8,19.5 17.6,17.2" style="fill:rgb(43,33,24);fill-rule:nonzero;"></path></g><g transform="matrix(12.5,0,0,12.5,0,0)"><path d="M58.7,30.1C63.2,27.7 61.8,12 61.8,12C61.8,12 45.7,10.1 43.2,14.7C41.3,18.2 55,32 58.7,30.1Z" style="fill:rgb(137,102,76);fill-rule:nonzero;"></path></g><g transform="matrix(12.5,0,0,12.5,0,0)"><path d="M56.2,27.1C59,25.6 58.1,15.9 58.1,15.9C58.1,15.9 48.1,14.8 46.5,17.6C45.4,19.8 54,28.3 56.2,27.1" style="fill:rgb(43,33,24);fill-rule:nonzero;"></path></g><g transform="matrix(12.5,0,0,12.5,0,0)"><path d="M58.8,39.4C58.8,56.8 46.8,60 32,60C17.2,60 5.2,56.8 5.2,39.4C5.2,22 21.7,9.5 32,9.5C42.3,9.5 58.8,22 58.8,39.4Z" style="fill:rgb(137,102,76);fill-rule:nonzero;"></path></g><g transform="matrix(12.5,0,0,12.5,0,0)"><path d="M19.7,47.3C7.8,53.1 11,28.3 11,28.3C1.8,52.1 12.8,55.9 20.6,54.7L19.7,47.3" style="fill:white;fill-rule:nonzero;"></path><path d="M44.3,47.3C56.2,53.1 53,28.3 53,28.3C62.2,52.1 51.2,55.9 43.4,54.7L44.3,47.3" style="fill:white;fill-rule:nonzero;"></path></g><g transform="matrix(12.5,0,0,12.5,0,0)"><path d="M32,22.6C32,22.6 29,12.6 22.3,10.7C22.3,10.7 25.3,9 27.5,9.8C27.5,9.8 27.6,8 25.7,6.7C25.7,6.7 30,5.8 32.2,8.8C32.2,8.8 32.5,5.6 31.7,4C31.7,4 38.8,5.7 40.7,11.8C40.7,11.8 33.4,13.9 32,22.6" style="fill:rgb(92,69,51);fill-rule:nonzero;"></path></g><g transform="matrix(12.5,0,0,12.5,0,0)"><ellipse cx="18.6" cy="34.6" rx="3.1" ry="5.6" style="fill:rgb(43,33,24);"></ellipse><path d="M45.4,28.8C47.1,28.8 48.5,31.3 48.5,34.4C48.5,37.5 47.1,40 45.4,40C43.7,40 42.3,37.5 42.3,34.4C42.3,31.3 43.7,28.8 45.4,28.8" style="fill:rgb(43,33,24);fill-rule:nonzero;"></path></g><g transform="matrix(12.5,0,0,12.5,0,0)"><path d="M46,49.8C46,57.9 39.7,57 32,57C24.2,57 18,57.9 18,49.8C18,41.7 24.3,37.7 32,37.7C39.8,37.6 46,41.7 46,49.8" style="fill:rgb(252,151,178);fill-rule:nonzero;"></path></g><g transform="matrix(12.5,0,0,12.5,0,0)"><ellipse cx="25.7" cy="48" rx="3.4" ry="6.3" style="fill:rgb(122,73,90);"></ellipse><ellipse cx="38.3" cy="48" rx="3.4" ry="6.3" style="fill:rgb(122,73,90);"></ellipse></g></g></g></g><circle cx="269.333" cy="266.333" r="210.333" style="fill:none;stroke:black;stroke-width:2.89px;"></circle></g><defs><radialGradient id="_Radial1" cx="0" cy="0" r="1" gradientUnits="userSpaceOnUse" gradientTransform="matrix(0,210.333333,-210.333333,0,269.333333,266.333333)"><stop offset="0" style="stop-color:white;stop-opacity:1"></stop><stop offset="0.48" style="stop-color:rgb(198,198,198);stop-opacity:1"></stop><stop offset="1" style="stop-color:rgb(44,44,44);stop-opacity:1"></stop></radialGradient></defs></svg>