<svg width="100%" height="100%" viewBox="0 0 512 512" version="1.1" xmlns="http://www.w3.org/2000/svg" xmlns:xlink="http://www.w3.org/1999/xlink" xml:space="preserve" style="fill-rule:evenodd;clip-rule:evenodd;stroke-linecap:round;stroke-linejoin:round;stroke-miterlimit:1.5;"><g transform="matrix(1.164025,0,0,1.164025,-57.510829,-54.018753)"><circle cx="269.333" cy="266.333" r="210.333" style="fill:url(#_Radial1);stroke:black;stroke-width:3.44px;"></circle></g><g transform="matrix(1.037243,0,0,1.037243,-23.363995,-20.252268)"><circle cx="269.333" cy="266.333" r="210.333" style="fill:rgb(61,60,115);"></circle><clipPath id="_clip2"><circle cx="269.333" cy="266.333" r="210.333"></circle></clipPath><g clip-path="url(#_clip2)"><g transform="matrix(0.431658,0,0,0.431658,269.333333,280.895162)"><g transform="matrix(1,0,0,1,-400,-400)"><clipPath id="_clip3"><rect x="0" y="0" width="800" height="800"></rect></clipPath><g clip-path="url(#_clip3)"><g transform="matrix(1.562488,0,0,1.562488,0,0)"><path d="M256.001,40.467C320.283,40.467 368.685,63.242 383.275,157.038C383.275,157.038 445.032,193.772 375.21,193.772C375.21,193.772 409.577,275.207 368.415,331.966C327.241,388.725 371.921,488.499 327.046,495.616C283.349,502.55 256,504.165 256,504.165C256,504.165 228.652,502.55 184.954,495.616C140.081,488.499 184.76,388.725 143.585,331.966C102.422,275.207 136.79,193.772 136.79,193.772C66.97,193.772 128.725,157.038 128.725,157.038C143.318,63.242 191.719,40.467 256.001,40.467Z" style="fill:rgb(247,85,52);fill-rule:nonzero;"></path></g><g transform="matrix(1.562488,0,0,1.562488,0,0)"><path d="M204.113,495.617C159.24,488.5 203.919,388.726 162.744,331.967C127.952,283.993 147.12,218.39 153.886,199.232C154.824,196.576 152.9,193.773 150.085,193.678C89.733,191.629 147.884,157.039 147.884,157.039C161.74,67.962 206.093,42.943 265.58,40.65C262.429,40.529 259.236,40.467 256.001,40.467C191.719,40.467 143.317,63.242 128.727,157.038C128.727,157.038 66.97,193.772 136.792,193.772C136.792,193.772 102.425,275.207 143.587,331.966C184.761,388.725 140.082,488.5 184.956,495.616C228.653,502.55 256.002,504.165 256.002,504.165C256.002,504.165 259.359,503.966 265.581,503.413C254.015,502.383 232.525,500.124 204.113,495.617Z" style="fill:rgb(189,57,30);fill-rule:nonzero;"></path></g><g transform="matrix(1.562488,0,0,1.562488,0,0)"><path d="M161.107,196.316L234.863,224.083C237.98,225.256 238.546,229.422 235.849,231.376C218.556,243.9 168.864,272.637 155.519,200.972C154.925,197.782 158.07,195.173 161.107,196.316Z" style="fill:rgb(54,41,40);fill-rule:nonzero;"></path><path d="M350.896,196.316L277.14,224.083C274.023,225.256 273.457,229.422 276.154,231.376C293.447,243.9 343.139,272.637 356.484,200.972C357.078,197.782 353.932,195.173 350.896,196.316Z" style="fill:rgb(54,41,40);fill-rule:nonzero;"></path></g><g transform="matrix(1.562488,0,0,1.562488,0,0)"><path d="M281.396,280.427C281.396,280.427 281.838,284.124 300.97,301.546C320.102,318.968 296.849,334.631 284.561,354.957C272.273,375.283 239.734,375.283 227.445,354.957C215.157,334.631 191.904,318.969 211.036,301.546C230.168,284.123 230.61,280.427 230.61,280.427L281.396,280.427Z" style="fill:rgb(189,57,30);fill-rule:nonzero;"></path></g><g transform="matrix(1.562488,0,0,1.562488,0,0)"><path d="M279.93,271.762C279.93,271.762 280.346,284.715 298.375,299.287C316.403,313.859 294.492,317.097 282.913,334.098C271.333,351.098 240.672,351.098 229.092,334.098C217.512,317.098 195.601,313.859 213.63,299.287C231.658,284.715 232.075,271.762 232.075,271.762L279.93,271.762Z" style="fill:rgb(247,85,52);fill-rule:nonzero;"></path></g><g transform="matrix(1.562488,0,0,1.562488,0,0)"><path d="M150.771,93.53C123.935,84.935 86.315,63.121 62.889,7.84C62.889,7.84 44.181,106.456 128.728,157.039C128.728,157.039 146.434,164.832 161.693,153.06C183.306,136.386 176.756,101.853 150.771,93.53Z" style="fill:rgb(247,237,227);fill-rule:nonzero;"></path></g><g transform="matrix(1.562488,0,0,1.562488,0,0)"><path d="M167.962,138.031C152.702,149.803 134.967,138.103 134.967,138.103C76.453,97.526 63.153,38.075 63.09,8.297C63.024,8.142 62.954,7.994 62.888,7.839C62.888,7.839 44.18,106.455 128.727,157.039C128.727,157.039 146.433,164.832 161.692,153.06C169.029,147.4 173.113,139.679 174.3,131.626C172.546,133.949 170.449,136.112 167.962,138.031Z" style="fill:rgb(219,210,202);fill-rule:nonzero;"></path></g><g transform="matrix(1.562488,0,0,1.562488,0,0)"><path d="M361.232,93.53C388.068,84.935 425.688,63.121 449.114,7.84C449.114,7.84 467.822,106.456 383.275,157.039C383.275,157.039 365.569,164.832 350.31,153.06C328.697,136.386 335.246,101.853 361.232,93.53Z" style="fill:rgb(247,237,227);fill-rule:nonzero;"></path></g><g transform="matrix(1.562488,0,0,1.562488,0,0)"><path d="M372.253,153.059C350.64,136.386 356.692,108.905 382.087,98.919C413.086,86.728 430.152,67.572 449.115,7.838C425.688,63.12 388.069,84.933 361.233,93.529C335.246,101.853 328.698,136.385 350.311,153.059C362.33,162.331 375.86,159.466 381.068,157.831C378.132,156.82 375.148,155.293 372.253,153.059Z" style="fill:rgb(219,210,202);fill-rule:nonzero;"></path></g><g transform="matrix(1.562488,0,0,1.562488,0,0)"><path d="M162.006,407.66C162.006,407.66 152.461,387.3 178.334,339.536C178.334,339.536 194.762,394.503 206.772,410.029C206.771,410.029 183.028,428.71 162.006,407.66Z" style="fill:rgb(247,237,227);fill-rule:nonzero;"></path></g><g transform="matrix(1.562488,0,0,1.562488,0,0)"><path d="M186.777,407.251C186.777,407.251 171.518,396.848 178.333,339.536C152.46,387.3 162.005,407.66 162.005,407.66C174.849,420.52 188.698,418.547 197.538,415.068C194.134,413.489 190.525,411.004 186.777,407.251Z" style="fill:rgb(219,210,202);fill-rule:nonzero;"></path></g><g transform="matrix(1.562488,0,0,1.562488,0,0)"><path d="M349.997,407.66C349.997,407.66 359.542,387.3 333.669,339.536C333.669,339.536 317.241,394.503 305.231,410.029C305.232,410.029 328.975,428.71 349.997,407.66Z" style="fill:rgb(247,237,227);fill-rule:nonzero;"></path></g><g transform="matrix(1.562488,0,0,1.562488,0,0)"><path d="M325.487,417.438C343.947,390.968 333.67,339.536 333.67,339.536C333.67,339.536 317.242,394.502 305.232,410.029C305.232,410.029 314.133,417.015 325.855,417.618C325.622,417.508 325.487,417.438 325.487,417.438Z" style="fill:rgb(219,210,202);fill-rule:nonzero;"></path></g><g transform="matrix(1.562488,0,0,1.562488,0,0)"><path d="M358.907,432.889C331.389,440.05 256.001,445.62 256.001,445.62C256.001,445.62 180.614,440.05 153.095,432.889C125.577,425.727 137.22,394.027 153.095,397.878C153.095,397.878 220.842,411.14 256.001,411.14C291.16,411.14 358.907,397.878 358.907,397.878C374.782,394.026 386.426,425.728 358.907,432.889Z" style="fill:rgb(230,69,36);fill-rule:nonzero;"></path></g><g transform="matrix(1.562488,0,0,1.562488,0,0)"><path d="M159.944,399.168C155.623,398.372 153.096,397.878 153.096,397.878C137.221,394.026 125.578,425.728 153.096,432.889C155.16,433.426 157.497,433.954 160.047,434.471C153.056,423.69 154.595,407.982 159.944,399.168Z" style="fill:rgb(166,50,26);fill-rule:nonzero;"></path></g><g transform="matrix(1.562488,0,0,1.562488,0,0)"><path d="M149.455,187.654C147.296,189.381 146.209,192.119 146.591,194.859C151.063,226.82 162.471,246.422 180.497,253.12C185.121,254.839 189.862,255.567 194.587,255.567C220.465,255.567 245.746,233.694 246.996,232.597C249.066,230.781 250.03,228.011 249.538,225.304C249.045,222.595 247.166,220.343 244.589,219.372L157.113,186.44C154.523,185.465 151.615,185.926 149.455,187.654ZM225.516,228.938C214.255,235.996 198.258,243.019 185.93,238.418C176.003,234.715 168.847,223.833 164.581,205.998L225.516,228.938Z" style="fill-rule:nonzero;"></path></g><g transform="matrix(1.562488,0,0,1.562488,0,0)"><path d="M331.506,253.119C349.532,246.421 360.94,226.819 365.412,194.858C365.794,192.119 364.707,189.382 362.548,187.653C360.388,185.925 357.477,185.463 354.89,186.437L267.414,219.369C264.837,220.34 262.958,222.591 262.465,225.301C261.972,228.009 262.936,230.778 265.007,232.594C266.257,233.691 291.536,255.564 317.416,255.564C322.139,255.566 326.885,254.837 331.506,253.119ZM347.421,205.998C343.155,223.833 335.998,234.715 326.072,238.418C313.743,243.017 297.747,235.995 286.486,228.938L347.421,205.998Z" style="fill-rule:nonzero;"></path></g><g transform="matrix(1.562488,0,0,1.562488,0,0)"><path d="M236.499,191.913C237.978,193.184 239.795,193.806 241.603,193.806C243.807,193.806 245.998,192.881 247.547,191.08C250.368,187.798 249.997,182.85 246.715,180.028C245.942,179.362 227.479,163.588 202.226,150.708C198.373,148.741 193.651,150.273 191.684,154.129C189.717,157.984 191.249,162.704 195.105,164.671C218.615,176.658 236.324,191.761 236.499,191.913Z" style="fill-rule:nonzero;"></path></g><g transform="matrix(1.562488,0,0,1.562488,0,0)"><path d="M270.401,193.803C272.208,193.803 274.025,193.181 275.503,191.912C275.679,191.76 293.387,176.658 316.895,164.669C320.751,162.703 322.282,157.983 320.316,154.127C318.348,150.271 313.628,148.743 309.774,150.706C284.521,163.585 266.059,179.361 265.285,180.026C262.005,182.847 261.633,187.792 264.452,191.073C266.003,192.877 268.195,193.803 270.401,193.803Z" style="fill-rule:nonzero;"></path></g><g transform="matrix(1.562488,0,0,1.562488,0,0)"><path d="M210.886,326.754C214.862,330.029 219.366,333.74 222.615,338.509C229.513,348.638 241.995,354.685 256.002,354.685C270.009,354.685 282.49,348.638 289.389,338.509C292.637,333.741 297.142,330.029 301.118,326.754C307.012,321.897 313.107,316.876 313.07,309.114C313.037,301.893 307.479,296.568 303.302,293.192C288.765,281.442 287.787,271.721 287.754,271.314L287.763,271.51L272.098,272.014C272.152,273.707 273.213,289.026 293.449,305.382C295.818,307.295 296.804,308.52 297.199,309.126C296.215,310.486 293.326,312.866 291.15,314.658C286.603,318.406 280.943,323.069 276.435,329.688C272.518,335.44 264.688,339.014 256.002,339.014C247.316,339.014 239.486,335.44 235.569,329.688C231.061,323.07 225.401,318.406 220.854,314.658C218.679,312.866 215.789,310.487 214.805,309.126C215.2,308.52 216.186,307.296 218.555,305.382C238.791,289.026 239.852,273.707 239.905,272.014L224.24,271.51L224.249,271.314C224.216,271.723 223.238,281.442 208.701,293.192C204.525,296.568 198.968,301.893 198.933,309.114C198.898,316.875 204.993,321.896 210.886,326.754Z" style="fill-rule:nonzero;"></path></g><g transform="matrix(1.562488,0,0,1.562488,0,0)"><path d="M99.562,63.048C102.73,60.099 102.907,55.14 99.958,51.972C87.957,39.08 77.911,23.204 70.105,4.781C68.758,1.601 65.486,-0.334 62.055,0.048C58.623,0.416 55.834,2.986 55.191,6.38C54.988,7.447 50.306,32.865 56.406,64.935C63.767,103.639 83.794,135.292 114.593,157.164C113.13,158.258 111.611,159.441 110.101,160.7C98.583,170.302 94.033,178.785 96.19,186.634C99.063,197.087 112.062,200.362 125.754,201.281C122.86,210.211 119.042,224.151 116.977,240.608C112.216,278.539 119.226,311.721 137.249,336.569C145.875,348.453 151.215,363.802 153.578,383.447C153.191,385.74 152.926,387.869 152.745,389.865C142.417,388.623 132.483,396.172 129.521,407.943C126.46,420.106 131.917,435.474 151.12,440.476C152.311,440.787 153.588,441.096 154.953,441.403C154.778,469.522 156.406,499.03 183.733,503.359C227.31,510.267 254.407,511.922 255.539,511.99C255.693,511.999 255.848,512.004 256.002,512.004C256.156,512.004 256.311,512 256.465,511.99C257.598,511.923 284.694,510.268 328.27,503.359C355.597,499.03 357.224,469.522 357.051,441.403C358.415,441.096 359.689,440.789 360.878,440.477C380.086,435.474 385.542,420.106 382.482,407.943C379.52,396.172 369.59,388.622 359.258,389.865C359.077,387.87 358.812,385.741 358.425,383.447C360.787,363.803 366.129,348.453 374.748,336.575C376.752,333.82 378.668,330.881 380.444,327.841C382.627,324.104 381.367,319.304 377.629,317.121C373.892,314.939 369.093,316.197 366.909,319.936C365.396,322.526 363.768,325.023 362.067,327.362C356.616,334.874 352.294,343.43 349.029,353.157C346.709,347.78 343.916,342 340.559,335.802C339.05,333.017 336.023,331.409 332.863,331.739C329.712,332.065 327.067,334.254 326.16,337.29C322.288,350.239 311.545,383.076 302.815,399.195C282.856,401.918 267.117,403.298 256,403.298C244.883,403.298 229.144,401.918 209.185,399.195C200.456,383.076 189.712,350.239 185.84,337.29C184.933,334.255 182.288,332.064 179.137,331.739C175.979,331.41 172.95,333.017 171.441,335.802C168.084,341.999 165.291,347.779 162.971,353.157C159.707,343.43 155.385,334.874 149.934,327.364C111.899,274.926 143.686,197.585 144.008,196.814C145.03,194.395 144.77,191.623 143.318,189.435C141.866,187.246 139.414,185.93 136.787,185.93C118.606,185.93 112.941,183.268 111.494,182.312C112.681,178.826 120.798,171.458 129.746,165.645C132.755,166.495 137.169,167.403 142.314,167.403C149.571,167.403 158.271,165.595 166.477,159.264C178.84,149.726 184.591,134.735 181.861,119.162C179.6,106.266 171.7,95.387 160.596,89.282C179.889,61.029 209.731,48.308 255.996,48.308C270.374,48.308 282.751,49.467 293.835,51.852C298.056,52.761 302.234,50.07 303.144,45.839C304.054,41.608 301.362,37.44 297.131,36.53C284.952,33.909 271.497,32.635 255.997,32.635C229.753,32.635 208.434,36.428 190.821,44.23C171.979,52.576 157.173,65.435 145.701,83.397C139.143,80.811 132.791,77.656 126.748,73.959C123.057,71.702 118.233,72.863 115.974,76.556C113.716,80.248 114.878,85.071 118.571,87.33C127.946,93.063 137.973,97.661 148.376,100.992C157.92,104.049 164.666,111.853 166.421,121.868C168.127,131.597 164.568,140.938 156.902,146.853C146.544,154.843 134.489,150.858 132.237,150.005C99.637,130.322 79.338,100.899 71.901,62.544C70.106,53.289 69.311,44.582 69.064,36.997C74.865,46.418 81.354,54.995 88.481,62.65C91.436,65.819 96.395,65.996 99.562,63.048ZM325.816,487.877C286.119,494.169 259.77,496.061 256.001,496.31C252.232,496.06 225.883,494.169 186.185,487.877C173.72,485.902 170.796,472.672 170.649,444.318C203.887,449.591 253.145,453.264 255.423,453.433C255.616,453.448 255.808,453.455 256.001,453.455C256.194,453.455 256.386,453.448 256.579,453.433C258.858,453.265 308.117,449.591 341.353,444.317C341.207,472.672 338.282,485.902 325.816,487.877ZM335.17,360.623C339.131,370.032 341.373,377.816 342.58,384.084C342.068,388.85 341.695,393.848 341.459,399.345C341.384,401.136 341.322,403.003 341.272,404.913C331.82,412.108 322.211,410.073 316.165,407.4C323.088,394.855 330.26,375.241 335.17,360.623ZM299.573,415.437C299.826,415.7 300.091,415.955 300.387,416.187C305.993,420.598 316.034,425.516 327.373,425.516C336.056,425.516 345.5,422.614 354.284,414.4C354.406,414.29 354.525,414.177 354.64,414.059C354.941,413.772 355.243,413.496 355.543,413.196C356.184,412.554 356.708,411.806 357.094,410.985C357.359,410.419 358.059,408.742 358.648,405.905C359.78,405.69 360.395,405.571 360.395,405.571C360.515,405.548 360.634,405.521 360.753,405.493C363.622,404.792 366.388,408.203 367.284,411.767C368.053,414.827 368.586,422.273 356.924,425.31C354.42,425.964 351.319,426.641 347.702,427.324C317.851,432.961 262.282,437.284 256.004,437.76C249.725,437.284 194.156,432.96 164.304,427.324C160.689,426.643 157.586,425.965 155.079,425.309C143.422,422.274 143.955,414.828 144.724,411.767C145.619,408.205 148.38,404.799 151.255,405.493C151.373,405.521 151.493,405.548 151.613,405.571C151.613,405.571 152.228,405.69 153.36,405.905C153.948,408.741 154.647,410.419 154.914,410.985C155.3,411.806 155.824,412.554 156.465,413.196C156.762,413.494 157.063,413.768 157.36,414.052C157.481,414.177 157.608,414.295 157.737,414.412C166.519,422.618 175.955,425.515 184.635,425.515C195.971,425.515 206.016,420.596 211.621,416.186C211.916,415.954 212.182,415.7 212.435,415.436C230.597,417.781 245.233,418.972 256.006,418.972C266.776,418.973 281.409,417.783 299.573,415.437ZM176.833,360.623C181.742,375.24 188.914,394.854 195.837,407.397C189.781,410.074 180.176,412.102 170.731,404.913C170.681,403.003 170.619,401.134 170.544,399.338C170.307,393.838 169.936,388.84 169.424,384.081C170.631,377.813 172.872,370.03 176.833,360.623Z" style="fill-rule:nonzero;"></path></g><g transform="matrix(1.562488,0,0,1.562488,0,0)"><path d="M455.598,64.935C461.698,32.865 457.016,7.447 456.813,6.38C456.17,2.987 453.382,0.416 449.949,0.048C446.524,-0.329 443.247,1.602 441.899,4.781C421.82,52.162 391.005,73.666 366.307,83.402C357.489,69.633 346.443,58.623 333.397,50.625C329.708,48.362 324.883,49.518 322.621,53.21C320.359,56.898 321.515,61.724 325.206,63.986C335.556,70.332 344.189,78.652 351.42,89.276C340.307,95.379 332.402,106.263 330.14,119.164C327.41,134.736 333.161,149.728 345.524,159.266C353.731,165.598 362.429,167.405 369.687,167.405C374.831,167.405 379.245,166.497 382.254,165.647C391.205,171.462 399.32,178.829 400.507,182.314C399.06,183.27 393.395,185.932 375.214,185.932C372.589,185.932 370.142,187.249 368.689,189.435C367.237,191.621 366.975,194.391 367.992,196.811C368.183,197.266 386.987,242.792 378.7,287.522C377.911,291.777 380.722,295.867 384.978,296.654C385.461,296.744 385.94,296.787 386.415,296.787C390.119,296.787 393.412,294.151 394.111,290.377C400.837,254.073 391.856,218.456 386.266,201.282C399.952,200.361 412.942,197.085 415.815,186.636C417.972,178.786 413.422,170.303 401.904,160.702C400.394,159.444 398.876,158.26 397.412,157.166C428.209,135.291 448.235,103.639 455.598,64.935ZM379.754,150.01C377.525,150.861 365.487,154.871 355.095,146.854C347.429,140.94 343.87,131.598 345.576,121.869C347.332,111.854 354.078,104.049 363.621,100.993C387.596,93.313 418.97,75.994 442.931,37.035C442.682,44.613 441.887,53.304 440.095,62.545C432.659,100.903 412.358,130.328 379.754,150.01Z" style="fill-rule:nonzero;"></path></g></g></g></g></g><circle cx="269.333" cy="266.333" r="210.333" style="fill:none;stroke:black;stroke-width:2.89px;"></circle></g><defs><radialGradient id="_Radial1" cx="0" cy="0" r="1" gradientUnits="userSpaceOnUse" gradientTransform="matrix(0,210.333333,-210.333333,0,269.333333,266.333333)"><stop offset="0" style="stop-color:white;stop-opacity:1"></stop><stop offset="0.48" style="stop-color:rgb(198,198,198);stop-opacity:1"></stop><stop offset="1" style="stop-color:rgb(44,44,44);stop-opacity:1"></stop></radialGradient></defs></svg>