<svg width="100%" height="100%" viewBox="0 0 512 512" version="1.1" xmlns="http://www.w3.org/2000/svg" xmlns:xlink="http://www.w3.org/1999/xlink" xml:space="preserve" style="fill-rule:evenodd;clip-rule:evenodd;stroke-linecap:round;stroke-linejoin:round;stroke-miterlimit:1.5;"><g transform="matrix(1.164025,0,0,1.164025,-57.510829,-54.018753)"><circle cx="269.333" cy="266.333" r="210.333" style="fill:url(#_Radial1);stroke:black;stroke-width:3.44px;"></circle></g><g transform="matrix(1.037243,0,0,1.037243,-23.363995,-20.252268)"><circle cx="269.333" cy="266.333" r="210.333" style="fill:rgb(60,82,115);"></circle><clipPath id="_clip2"><circle cx="269.333" cy="266.333" r="210.333"></circle></clipPath><g clip-path="url(#_clip2)"><g transform="matrix(0.397578,0,0,0.397578,269.333333,274.367447)"><g transform="matrix(1,0,0,1,-400,-400)"><clipPath id="_clip3"><rect x="0" y="0" width="800" height="800"></rect></clipPath><g clip-path="url(#_clip3)"><g transform="matrix(22.222222,0,0,22.222222,0,0)"><path d="M32.325,10.958C32.325,10.958 34.64,10.982 35.836,12.135C35.5,7.164 33.732,3.886 29.892,2.005C26.751,0.886 23.826,3.458 23.826,3.458C23.826,3.458 24.688,1.468 26.016,0.712C23.789,0.236 21.146,0 18,0C14.864,0 12.215,0.227 9.994,0.701C11.335,1.446 12.209,3.459 12.209,3.459C12.209,3.459 9.194,0.803 6,2.053C2.221,3.949 0.481,7.223 0.158,12.174C1.341,10.984 3.708,10.959 3.708,10.959C3.708,10.959 -0.105,13.267 0.282,16.614C0.669,19.561 1.676,22.581 3.161,25.336C3.039,22.15 5.917,20 5.917,20C5.917,20 3.425,25.96 5.336,28.738C7.271,31.28 9.649,33.379 12.312,34.654C11.357,33.009 12.176,31.61 12.209,31.709C12.251,31.834 12.668,34.821 14.346,35.452C15.524,35.808 16.746,36 18,36C19.292,36 20.55,35.793 21.761,35.417C23.375,34.726 23.785,31.832 23.825,31.709C23.857,31.611 24.668,32.996 23.735,34.63C26.441,33.321 28.853,31.167 30.799,28.557C32.498,25.711 30.116,20 30.116,20C30.116,20 32.966,22.13 32.873,25.288C34.429,22.382 35.458,19.184 35.784,16.088C35.749,13.027 32.325,10.958 32.325,10.958Z" style="fill:rgb(102,33,19);fill-rule:nonzero;"></path></g><g transform="matrix(22.222222,0,0,22.222222,0,0)"><path d="M13.859,9.495C14.455,11.887 14.019,13.917 11.628,14.512C9.236,15.108 5.265,14.599 4.67,12.208C4.074,9.816 5.139,6.818 6.48,6.484C7.821,6.15 13.264,7.104 13.859,9.495ZM22.963,27.927C22.963,27.95 22.963,27.974 22.963,27.997C22.963,30.72 20.723,32.961 17.999,32.961C15.276,32.961 13.035,30.72 13.035,27.997C13.035,27.973 13.036,27.95 13.036,27.926C13.075,25.23 15.303,23.033 17.999,23.033C20.696,23.033 22.925,25.231 22.963,27.927Z" style="fill:rgb(255,204,77);fill-rule:nonzero;"></path></g><g transform="matrix(22.222222,0,0,22.222222,0,0)"><path d="M21.309,27.927C21.309,29.742 19.815,31.236 18,31.236C16.185,31.236 14.691,29.742 14.691,27.927C14.691,26.112 16.185,24.618 18,24.618C19.815,24.618 21.309,26.112 21.309,27.927Z" style="fill:rgb(221,46,68);fill-rule:nonzero;"></path></g><g transform="matrix(22.222222,0,0,22.222222,0,0)"><path d="M11.052,8.997C11.917,10.381 11.49,12.232 10.106,13.097C8.712,13.968 7.498,13.894 6.627,12.501C5.756,11.107 6.441,8.37 6.951,8.051C7.461,7.732 10.181,7.603 11.052,8.997Z" style="fill:rgb(230,170,170);fill-rule:nonzero;"></path></g><g transform="matrix(22.222222,0,0,22.222222,0,0)"><path d="M22.141,9.495C21.545,11.887 21.982,13.917 24.373,14.512C26.765,15.108 30.736,14.599 31.332,12.208C31.928,9.816 30.862,6.818 29.521,6.484C28.179,6.15 22.735,7.104 22.141,9.495Z" style="fill:rgb(255,204,77);fill-rule:nonzero;"></path></g><g transform="matrix(22.222222,0,0,22.222222,0,0)"><path d="M24.948,8.997C24.083,10.381 24.51,12.231 25.893,13.097C27.287,13.968 28.501,13.894 29.372,12.501C30.243,11.107 29.557,8.37 29.048,8.051C28.538,7.732 25.819,7.603 24.948,8.997Z" style="fill:rgb(230,170,170);fill-rule:nonzero;"></path></g><g transform="matrix(22.222222,0,0,22.222222,0,0)"><path d="M18,7.125L17.998,7.125C5.167,7.126 7.125,12.083 8.5,18.667C9.875,25.25 10.384,27 10.384,27L25.612,27C25.612,27 26.122,25.25 27.497,18.667C28.872,12.083 30.829,7.126 18,7.125Z" style="fill:rgb(255,204,77);fill-rule:nonzero;"></path></g><g transform="matrix(22.222222,0,0,22.222222,0,0)"><path d="M12,16C12,16 12,14.5 13.5,14.5C15,14.5 15,16 15,16L15,17.5C15,17.5 15,19 13.5,19C12,19 12,17.5 12,17.5L12,16ZM21,16C21,16 21,14.5 22.5,14.5C24,14.5 24,16 24,16L24,17.5C24,17.5 24,19 22.5,19C21,19 21,17.5 21,17.5L21,16Z" style="fill:rgb(39,43,43);fill-rule:nonzero;"></path></g><g transform="matrix(22.222222,0,0,22.222222,0,0)"><path d="M20.168,21.521C18.57,21.521 18.783,22.369 18,23.634C17.217,22.368 17.429,21.521 15.832,21.521C8.967,21.521 8.995,21.896 8.967,24.349C8.909,29.335 11.769,30.481 14.224,30.409C15.821,30.361 17.218,29.529 18.001,28.278C18.784,29.529 20.18,30.361 21.777,30.409C24.232,30.481 27.092,29.336 27.034,24.349C27.005,21.896 27.033,21.521 20.168,21.521Z" style="fill:rgb(255,232,182);fill-rule:nonzero;"></path></g><g transform="matrix(22.222222,0,0,22.222222,0,0)"><path d="M14.582,21.411C13.442,21.644 16.861,25.842 18,25.842C19.139,25.842 22.559,21.644 21.419,21.411C20.279,21.179 15.721,21.179 14.582,21.411Z" style="fill:rgb(39,43,43);fill-rule:nonzero;"></path></g><g transform="matrix(22.222222,0,0,22.222222,0,0)"><circle cx="11.5" cy="24.5" r="0.5" style="fill:rgb(217,158,130);"></circle></g><g transform="matrix(22.222222,0,0,22.222222,0,0)"><circle cx="10.5" cy="26.5" r="0.5" style="fill:rgb(217,158,130);"></circle></g><g transform="matrix(22.222222,0,0,22.222222,0,0)"><circle cx="12.5" cy="27.5" r="0.5" style="fill:rgb(217,158,130);"></circle></g><g transform="matrix(22.222222,0,0,22.222222,0,0)"><circle cx="24.5" cy="24.5" r="0.5" style="fill:rgb(217,158,130);"></circle></g><g transform="matrix(22.222222,0,0,22.222222,0,0)"><circle cx="25.5" cy="26.5" r="0.5" style="fill:rgb(217,158,130);"></circle></g><g transform="matrix(22.222222,0,0,22.222222,0,0)"><circle cx="23.5" cy="27.5" r="0.5" style="fill:rgb(217,158,130);"></circle></g></g></g></g></g><circle cx="269.333" cy="266.333" r="210.333" style="fill:none;stroke:black;stroke-width:2.89px;"></circle></g><defs><radialGradient id="_Radial1" cx="0" cy="0" r="1" gradientUnits="userSpaceOnUse" gradientTransform="matrix(0,210.333333,-210.333333,0,269.333333,266.333333)"><stop offset="0" style="stop-color:white;stop-opacity:1"></stop><stop offset="0.48" style="stop-color:rgb(198,198,198);stop-opacity:1"></stop><stop offset="1" style="stop-color:rgb(44,44,44);stop-opacity:1"></stop></radialGradient></defs></svg>