<svg width="100%" height="100%" viewBox="0 0 512 512" version="1.1" xmlns="http://www.w3.org/2000/svg" xmlns:xlink="http://www.w3.org/1999/xlink" xml:space="preserve" style="fill-rule:evenodd;clip-rule:evenodd;stroke-linecap:round;stroke-linejoin:round;stroke-miterlimit:1.5;"><g transform="matrix(1.164025,0,0,1.164025,-57.510829,-54.018753)"><circle cx="269.333" cy="266.333" r="210.333" style="fill:url(#_Radial1);stroke:black;stroke-width:3.44px;"></circle></g><g transform="matrix(1.037243,0,0,1.037243,-23.363995,-20.252268)"><circle cx="269.333" cy="266.333" r="210.333" style="fill:rgb(115,60,85);"></circle><clipPath id="_clip2"><circle cx="269.333" cy="266.333" r="210.333"></circle></clipPath><g clip-path="url(#_clip2)"><g transform="matrix(0.397578,0,0,0.397578,269.333333,266.333333)"><g transform="matrix(1,0,0,1,-400,-400)"><clipPath id="_clip3"><rect x="0" y="0" width="800" height="800"></rect></clipPath><g clip-path="url(#_clip3)"><g transform="matrix(1.5625,0,0,1.5625,0,0)"><path d="M256,8.17C128.151,8.17 24.511,111.811 24.511,239.66L24.511,258.724C24.511,302.393 50.21,340.054 87.306,357.426L113.856,503.831L398.085,503.831L424.705,357.422C461.797,340.049 487.491,302.391 487.491,258.725L487.491,239.66C487.489,111.811 383.849,8.17 256,8.17Z" style="fill:rgb(241,236,222);fill-rule:nonzero;"></path></g><g transform="matrix(1.5625,0,0,1.5625,0,0)"><path d="M438.94,233.693C452.754,267.044 436.917,305.278 403.566,319.092C370.215,332.906 331.981,317.069 318.167,283.718L438.94,233.693Z" style="fill:rgb(104,97,91);fill-rule:nonzero;"></path><path d="M73.089,233.693C59.275,267.044 75.112,305.278 108.463,319.092C141.814,332.906 180.048,317.069 193.862,283.718L73.089,233.693Z" style="fill:rgb(104,97,91);fill-rule:nonzero;"></path></g><g transform="matrix(1.5625,0,0,1.5625,0,0)"><path d="M280.267,305.763C279.172,301.385 274.734,298.725 270.358,299.818C265.98,300.912 263.32,305.349 264.413,309.726L275.307,353.3C276.236,357.013 279.566,359.491 283.228,359.491C283.885,359.491 284.552,359.411 285.216,359.245C289.594,358.151 292.254,353.714 291.161,349.337L280.267,305.763Z" style="fill:rgb(68,8,82);fill-rule:nonzero;"></path><path d="M241.641,299.818C237.262,298.724 232.828,301.384 231.732,305.763L220.838,349.337C219.744,353.714 222.405,358.15 226.783,359.245C227.449,359.412 228.115,359.491 228.771,359.491C232.431,359.491 235.763,357.013 236.692,353.3L247.586,309.726C248.679,305.349 246.019,300.913 241.641,299.818Z" style="fill:rgb(68,8,82);fill-rule:nonzero;"></path><path d="M425.464,70.195C380.199,24.929 320.015,0 256,0C191.985,0 131.801,24.929 86.536,70.195C41.271,115.461 16.34,175.644 16.34,239.66L16.34,258.724C16.34,304.05 42.229,343.439 79.994,362.895L105.816,505.288C106.521,509.174 109.905,512.001 113.855,512.001L398.084,512.001C402.033,512.001 405.415,509.177 406.122,505.293L432.013,362.892C469.772,343.434 495.659,304.048 495.659,258.725L495.659,239.66C495.66,175.644 470.731,115.46 425.464,70.195ZM391.265,495.66L120.677,495.66L97.947,370.324C107.065,373.23 116.661,375.056 126.588,375.632L136.271,429.034C136.976,432.92 140.36,435.747 144.31,435.747L198.806,435.747L198.806,449.364C198.806,453.876 202.463,457.534 206.976,457.534C211.489,457.534 215.146,453.876 215.146,449.364L215.146,435.746L247.827,435.746L247.827,449.363C247.827,453.875 251.484,457.533 255.997,457.533C260.51,457.533 264.167,453.875 264.167,449.363L264.167,435.746L296.848,435.746L296.848,449.363C296.848,453.875 300.505,457.533 305.018,457.533C309.531,457.533 313.188,453.875 313.188,449.363L313.188,435.746L367.656,435.746C371.605,435.746 374.987,432.922 375.694,429.038L385.403,375.633C395.331,375.057 404.93,373.231 414.049,370.323L391.265,495.66ZM378.553,90.639C374.04,90.639 370.383,94.297 370.383,98.809L370.383,149.787C370.383,154.299 374.04,157.957 378.553,157.957C434.116,157.957 479.319,203.16 479.319,258.723C479.319,314.286 434.116,359.489 378.553,359.489C374.604,359.489 371.222,362.313 370.515,366.197L360.84,419.404L313.191,419.404L313.191,405.787C313.191,401.275 309.534,397.617 305.021,397.617C300.508,397.617 296.851,401.275 296.851,405.787L296.851,419.404L264.17,419.404L264.17,405.787C264.17,401.275 260.513,397.617 256,397.617C251.487,397.617 247.83,401.275 247.83,405.787L247.83,419.404L215.149,419.404L215.149,405.787C215.149,401.275 211.492,397.617 206.979,397.617C202.466,397.617 198.809,401.275 198.809,405.787L198.809,419.404L151.134,419.404L141.487,366.202C140.782,362.315 137.398,359.489 133.448,359.489C77.885,359.489 32.682,314.286 32.682,258.723C32.682,203.16 77.885,157.957 133.448,157.957C137.961,157.957 141.618,154.299 141.618,149.787L141.618,98.809C141.618,94.297 137.961,90.639 133.448,90.639C128.935,90.639 125.278,94.297 125.278,98.809L125.278,141.899C89.352,144.387 57.837,163.156 38.068,190.856C60.39,91.112 149.622,16.34 256,16.34C362.378,16.34 451.61,91.112 473.933,190.856C454.165,163.156 422.65,144.387 386.723,141.899L386.723,98.809C386.723,94.297 383.066,90.639 378.553,90.639Z" style="fill:rgb(68,8,82);fill-rule:nonzero;"></path><path d="M325.715,236.821C327.443,232.652 325.463,227.873 321.293,226.146C317.124,224.42 312.345,226.399 310.618,230.568C303.101,248.715 303.101,268.701 310.618,286.847C318.134,304.993 332.267,319.126 350.412,326.642C359.485,330.4 369.018,332.279 378.551,332.279C388.084,332.279 397.618,330.4 406.69,326.642C444.149,311.125 462,268.027 446.484,230.568C445.655,228.566 444.065,226.975 442.062,226.146C440.06,225.317 437.811,225.317 435.809,226.146L323.117,272.825C320.061,260.913 320.926,248.385 325.715,236.821ZM433.98,244.591C440.899,271.686 427.012,300.537 400.44,311.544C386.326,317.39 370.781,317.391 356.667,311.544C345.101,306.754 335.633,298.509 329.373,287.92L433.98,244.591Z" style="fill:rgb(68,8,82);fill-rule:nonzero;"></path><circle cx="193.362" cy="117.106" r="8.17" style="fill:rgb(68,8,82);"></circle><circle cx="226.043" cy="149.787" r="8.17" style="fill:rgb(68,8,82);"></circle><path d="M190.735,226.146C186.566,227.873 184.586,232.652 186.313,236.821C191.102,248.386 191.967,260.913 188.908,272.824L76.216,226.145C72.05,224.421 67.269,226.397 65.541,230.567C58.024,248.712 58.024,268.7 65.54,286.846C73.056,304.991 87.189,319.125 105.335,326.641C114.409,330.399 123.94,332.278 133.474,332.278C143.006,332.278 152.541,330.399 161.613,326.641C179.753,319.128 193.884,304.999 201.401,286.861C208.924,268.69 208.922,248.71 201.408,230.567C199.683,226.399 194.905,224.419 190.735,226.146ZM155.361,311.544C141.248,317.391 125.701,317.391 111.588,311.544C97.474,305.697 86.481,294.706 80.636,280.592C75.846,269.026 74.981,256.501 78.041,244.589L182.653,287.921C176.396,298.508 166.927,306.753 155.361,311.544Z" style="fill:rgb(68,8,82);fill-rule:nonzero;"></path></g></g></g></g></g><circle cx="269.333" cy="266.333" r="210.333" style="fill:none;stroke:black;stroke-width:2.89px;"></circle></g><defs><radialGradient id="_Radial1" cx="0" cy="0" r="1" gradientUnits="userSpaceOnUse" gradientTransform="matrix(0,210.333333,-210.333333,0,269.333333,266.333333)"><stop offset="0" style="stop-color:white;stop-opacity:1"></stop><stop offset="0.48" style="stop-color:rgb(198,198,198);stop-opacity:1"></stop><stop offset="1" style="stop-color:rgb(44,44,44);stop-opacity:1"></stop></radialGradient></defs></svg>